<mxfile host="app.diagrams.net" agent="Mozilla/5.0 (Windows NT 10.0; Win64; x64) AppleWebKit/537.36 (KHTML, like Gecko) Chrome/126.0.0.0 Safari/537.36 OPR/112.0.0.0" version="24.7.12">
  <diagram name="Страница — 1" id="8btaMqDAk0RXkQAAcqI_">
    <mxGraphModel dx="1380" dy="747" grid="1" gridSize="10" guides="1" tooltips="1" connect="1" arrows="1" fold="1" page="1" pageScale="1" pageWidth="827" pageHeight="1169" math="0" shadow="0">
      <root>
        <mxCell id="0" />
        <mxCell id="1" parent="0" />
        <mxCell id="WD37yzQOnNgqw_hXzw93-1" value="Начало" style="strokeWidth=2;html=1;shape=mxgraph.flowchart.start_1;whiteSpace=wrap;" vertex="1" parent="1">
          <mxGeometry x="364" y="20" width="100" height="60" as="geometry" />
        </mxCell>
        <mxCell id="WD37yzQOnNgqw_hXzw93-2" value="Загрузка стартовой&lt;br&gt;страницы" style="rounded=0;whiteSpace=wrap;html=1;" vertex="1" parent="1">
          <mxGeometry x="354" y="110" width="120" height="60" as="geometry" />
        </mxCell>
        <mxCell id="WD37yzQOnNgqw_hXzw93-3" value="" style="endArrow=none;html=1;rounded=0;entryX=0.5;entryY=1;entryDx=0;entryDy=0;entryPerimeter=0;exitX=0.5;exitY=0;exitDx=0;exitDy=0;" edge="1" parent="1" source="WD37yzQOnNgqw_hXzw93-2" target="WD37yzQOnNgqw_hXzw93-1">
          <mxGeometry width="50" height="50" relative="1" as="geometry">
            <mxPoint x="600" y="150" as="sourcePoint" />
            <mxPoint x="600" y="80" as="targetPoint" />
          </mxGeometry>
        </mxCell>
        <mxCell id="WD37yzQOnNgqw_hXzw93-4" value="Введённые данные совпадают с данными из бд?" style="strokeWidth=2;html=1;shape=mxgraph.flowchart.decision;whiteSpace=wrap;" vertex="1" parent="1">
          <mxGeometry x="337" y="190" width="154" height="150" as="geometry" />
        </mxCell>
        <mxCell id="WD37yzQOnNgqw_hXzw93-5" value="" style="endArrow=none;html=1;rounded=0;entryX=0.5;entryY=1;entryDx=0;entryDy=0;exitX=0.5;exitY=0;exitDx=0;exitDy=0;exitPerimeter=0;" edge="1" parent="1" source="WD37yzQOnNgqw_hXzw93-4" target="WD37yzQOnNgqw_hXzw93-2">
          <mxGeometry width="50" height="50" relative="1" as="geometry">
            <mxPoint x="400" y="380" as="sourcePoint" />
            <mxPoint x="450" y="330" as="targetPoint" />
          </mxGeometry>
        </mxCell>
        <mxCell id="WD37yzQOnNgqw_hXzw93-6" value="" style="endArrow=classicThin;html=1;rounded=0;exitX=1;exitY=0.5;exitDx=0;exitDy=0;exitPerimeter=0;strokeWidth=1;edgeStyle=orthogonalEdgeStyle;entryX=1;entryY=0.5;entryDx=0;entryDy=0;fontSize=16;startArrow=none;startFill=0;endFill=1;" edge="1" parent="1" source="WD37yzQOnNgqw_hXzw93-4" target="WD37yzQOnNgqw_hXzw93-2">
          <mxGeometry width="50" height="50" relative="1" as="geometry">
            <mxPoint x="560" y="270" as="sourcePoint" />
            <mxPoint x="640" y="265" as="targetPoint" />
            <Array as="points">
              <mxPoint x="650" y="265" />
              <mxPoint x="650" y="140" />
            </Array>
          </mxGeometry>
        </mxCell>
        <mxCell id="WD37yzQOnNgqw_hXzw93-7" value="Нет" style="edgeLabel;html=1;align=center;verticalAlign=middle;resizable=0;points=[];fontSize=16;" vertex="1" connectable="0" parent="WD37yzQOnNgqw_hXzw93-6">
          <mxGeometry x="-0.687" y="1" relative="1" as="geometry">
            <mxPoint as="offset" />
          </mxGeometry>
        </mxCell>
        <mxCell id="WD37yzQOnNgqw_hXzw93-8" value="Загрузка главной страницы" style="rounded=0;whiteSpace=wrap;html=1;" vertex="1" parent="1">
          <mxGeometry x="354" y="410" width="120" height="60" as="geometry" />
        </mxCell>
        <mxCell id="WD37yzQOnNgqw_hXzw93-9" value="" style="endArrow=classic;html=1;rounded=0;exitX=0.5;exitY=1;exitDx=0;exitDy=0;exitPerimeter=0;entryX=0.5;entryY=0;entryDx=0;entryDy=0;endFill=1;" edge="1" parent="1" source="WD37yzQOnNgqw_hXzw93-4" target="WD37yzQOnNgqw_hXzw93-8">
          <mxGeometry width="50" height="50" relative="1" as="geometry">
            <mxPoint x="400" y="380" as="sourcePoint" />
            <mxPoint x="450" y="330" as="targetPoint" />
          </mxGeometry>
        </mxCell>
        <mxCell id="WD37yzQOnNgqw_hXzw93-10" value="Да" style="edgeLabel;html=1;align=center;verticalAlign=middle;resizable=0;points=[];fontSize=16;" vertex="1" connectable="0" parent="WD37yzQOnNgqw_hXzw93-9">
          <mxGeometry x="-0.2" relative="1" as="geometry">
            <mxPoint as="offset" />
          </mxGeometry>
        </mxCell>
        <mxCell id="WD37yzQOnNgqw_hXzw93-11" value="Главная страница" style="shape=display;whiteSpace=wrap;html=1;" vertex="1" parent="1">
          <mxGeometry x="344" y="525" width="136" height="60" as="geometry" />
        </mxCell>
        <mxCell id="WD37yzQOnNgqw_hXzw93-12" value="" style="endArrow=none;html=1;rounded=0;exitX=0.5;exitY=1;exitDx=0;exitDy=0;entryX=0;entryY=0;entryDx=70;entryDy=0;entryPerimeter=0;" edge="1" parent="1" target="WD37yzQOnNgqw_hXzw93-11">
          <mxGeometry width="50" height="50" relative="1" as="geometry">
            <mxPoint x="414" y="470" as="sourcePoint" />
            <mxPoint x="416" y="525" as="targetPoint" />
          </mxGeometry>
        </mxCell>
        <mxCell id="WD37yzQOnNgqw_hXzw93-13" value="Нажать на кнопку страницы списка пользователей" style="verticalLabelPosition=middle;verticalAlign=middle;html=1;shape=trapezoid;perimeter=trapezoidPerimeter;whiteSpace=wrap;size=0.23;arcSize=10;flipV=1;labelPosition=center;align=center;" vertex="1" parent="1">
          <mxGeometry x="145" y="518" width="150" height="75" as="geometry" />
        </mxCell>
        <mxCell id="WD37yzQOnNgqw_hXzw93-14" value="Нажать на кнопку страницы тэгов" style="verticalLabelPosition=middle;verticalAlign=middle;html=1;shape=trapezoid;perimeter=trapezoidPerimeter;whiteSpace=wrap;size=0.23;arcSize=10;flipV=1;labelPosition=center;align=center;" vertex="1" parent="1">
          <mxGeometry x="540" y="517" width="140" height="75" as="geometry" />
        </mxCell>
        <mxCell id="WD37yzQOnNgqw_hXzw93-15" value="" style="endArrow=none;html=1;rounded=0;entryX=0;entryY=0.5;entryDx=0;entryDy=0;entryPerimeter=0;exitX=1;exitY=0.5;exitDx=0;exitDy=0;" edge="1" parent="1" source="WD37yzQOnNgqw_hXzw93-13" target="WD37yzQOnNgqw_hXzw93-11">
          <mxGeometry width="50" height="50" relative="1" as="geometry">
            <mxPoint x="240" y="770" as="sourcePoint" />
            <mxPoint x="290" y="720" as="targetPoint" />
          </mxGeometry>
        </mxCell>
        <mxCell id="WD37yzQOnNgqw_hXzw93-16" value="" style="endArrow=none;html=1;rounded=0;entryX=0;entryY=0.5;entryDx=0;entryDy=0;exitX=1;exitY=0.5;exitDx=0;exitDy=0;exitPerimeter=0;" edge="1" parent="1" source="WD37yzQOnNgqw_hXzw93-11" target="WD37yzQOnNgqw_hXzw93-14">
          <mxGeometry width="50" height="50" relative="1" as="geometry">
            <mxPoint x="450" y="760" as="sourcePoint" />
            <mxPoint x="500" y="710" as="targetPoint" />
          </mxGeometry>
        </mxCell>
        <mxCell id="WD37yzQOnNgqw_hXzw93-17" value="Страница списка пользователей" style="shape=display;whiteSpace=wrap;html=1;" vertex="1" parent="1">
          <mxGeometry x="153" y="760" width="125" height="54" as="geometry" />
        </mxCell>
        <mxCell id="WD37yzQOnNgqw_hXzw93-18" value="" style="endArrow=none;html=1;rounded=0;entryX=0.5;entryY=1;entryDx=0;entryDy=0;exitX=0.537;exitY=0.005;exitDx=0;exitDy=0;exitPerimeter=0;" edge="1" parent="1" source="WD37yzQOnNgqw_hXzw93-17" target="WD37yzQOnNgqw_hXzw93-13">
          <mxGeometry width="50" height="50" relative="1" as="geometry">
            <mxPoint x="220" y="750" as="sourcePoint" />
            <mxPoint x="135" y="620" as="targetPoint" />
          </mxGeometry>
        </mxCell>
        <mxCell id="WD37yzQOnNgqw_hXzw93-19" value="" style="endArrow=none;html=1;rounded=0;entryX=0.5;entryY=1;entryDx=0;entryDy=0;exitX=0;exitY=0;exitDx=40;exitDy=0;exitPerimeter=0;" edge="1" parent="1" target="WD37yzQOnNgqw_hXzw93-14">
          <mxGeometry width="50" height="50" relative="1" as="geometry">
            <mxPoint x="610" y="762" as="sourcePoint" />
            <mxPoint x="490" y="740" as="targetPoint" />
          </mxGeometry>
        </mxCell>
        <mxCell id="WD37yzQOnNgqw_hXzw93-20" value="Данные&lt;br&gt;пользователей" style="strokeWidth=2;html=1;shape=mxgraph.flowchart.direct_data;whiteSpace=wrap;" vertex="1" parent="1">
          <mxGeometry x="260" y="650" width="140" height="60" as="geometry" />
        </mxCell>
        <mxCell id="WD37yzQOnNgqw_hXzw93-21" value="Данные тегов" style="strokeWidth=2;html=1;shape=mxgraph.flowchart.direct_data;whiteSpace=wrap;" vertex="1" parent="1">
          <mxGeometry x="440" y="650" width="140" height="60" as="geometry" />
        </mxCell>
        <mxCell id="WD37yzQOnNgqw_hXzw93-22" value="" style="endArrow=none;html=1;rounded=0;entryX=0;entryY=0.5;entryDx=0;entryDy=0;entryPerimeter=0;" edge="1" parent="1" target="WD37yzQOnNgqw_hXzw93-20">
          <mxGeometry width="50" height="50" relative="1" as="geometry">
            <mxPoint x="220" y="680" as="sourcePoint" />
            <mxPoint x="266" y="680" as="targetPoint" />
          </mxGeometry>
        </mxCell>
        <mxCell id="WD37yzQOnNgqw_hXzw93-23" value="" style="endArrow=none;html=1;rounded=0;exitX=1;exitY=0.5;exitDx=0;exitDy=0;exitPerimeter=0;" edge="1" parent="1" source="WD37yzQOnNgqw_hXzw93-21">
          <mxGeometry width="50" height="50" relative="1" as="geometry">
            <mxPoint x="500" y="830" as="sourcePoint" />
            <mxPoint x="610" y="680" as="targetPoint" />
          </mxGeometry>
        </mxCell>
        <mxCell id="WD37yzQOnNgqw_hXzw93-24" value="Страница списка тэгов" style="shape=display;whiteSpace=wrap;html=1;" vertex="1" parent="1">
          <mxGeometry x="540" y="760" width="125" height="54" as="geometry" />
        </mxCell>
        <mxCell id="WD37yzQOnNgqw_hXzw93-25" value="&lt;br&gt;Редактирование списка" style="html=1;strokeWidth=2;shape=manualInput;whiteSpace=wrap;rounded=1;size=26;arcSize=11;" vertex="1" parent="1">
          <mxGeometry x="170" y="860" width="100" height="70" as="geometry" />
        </mxCell>
        <mxCell id="WD37yzQOnNgqw_hXzw93-26" value="&lt;br&gt;Редактирование тэгов" style="html=1;strokeWidth=2;shape=manualInput;whiteSpace=wrap;rounded=1;size=26;arcSize=11;" vertex="1" parent="1">
          <mxGeometry x="553" y="860" width="100" height="70" as="geometry" />
        </mxCell>
        <mxCell id="WD37yzQOnNgqw_hXzw93-27" value="Отметить посещение" style="verticalLabelPosition=middle;verticalAlign=middle;html=1;shape=trapezoid;perimeter=trapezoidPerimeter;whiteSpace=wrap;size=0.23;arcSize=10;flipV=1;labelPosition=center;align=center;" vertex="1" parent="1">
          <mxGeometry x="169.5" y="990" width="100" height="60" as="geometry" />
        </mxCell>
        <mxCell id="WD37yzQOnNgqw_hXzw93-28" value="" style="endArrow=none;html=1;rounded=0;entryX=0;entryY=0;entryDx=64.625;entryDy=54;entryPerimeter=0;exitX=0.524;exitY=0.174;exitDx=0;exitDy=0;exitPerimeter=0;" edge="1" parent="1" source="WD37yzQOnNgqw_hXzw93-25">
          <mxGeometry width="50" height="50" relative="1" as="geometry">
            <mxPoint x="223" y="870" as="sourcePoint" />
            <mxPoint x="222.625" y="814" as="targetPoint" />
          </mxGeometry>
        </mxCell>
        <mxCell id="WD37yzQOnNgqw_hXzw93-29" value="" style="endArrow=none;html=1;rounded=0;entryX=0.5;entryY=1;entryDx=0;entryDy=0;exitX=0.5;exitY=0;exitDx=0;exitDy=0;" edge="1" parent="1" source="WD37yzQOnNgqw_hXzw93-27" target="WD37yzQOnNgqw_hXzw93-25">
          <mxGeometry width="50" height="50" relative="1" as="geometry">
            <mxPoint x="370" y="900" as="sourcePoint" />
            <mxPoint x="420" y="850" as="targetPoint" />
          </mxGeometry>
        </mxCell>
        <mxCell id="WD37yzQOnNgqw_hXzw93-30" value="" style="endArrow=none;html=1;rounded=0;entryX=0.551;entryY=1.004;entryDx=0;entryDy=0;entryPerimeter=0;exitX=0.553;exitY=0.173;exitDx=0;exitDy=0;exitPerimeter=0;" edge="1" parent="1" source="WD37yzQOnNgqw_hXzw93-26" target="WD37yzQOnNgqw_hXzw93-24">
          <mxGeometry width="50" height="50" relative="1" as="geometry">
            <mxPoint x="605" y="850" as="sourcePoint" />
            <mxPoint x="410" y="1000" as="targetPoint" />
          </mxGeometry>
        </mxCell>
      </root>
    </mxGraphModel>
  </diagram>
</mxfile>
